<?xml version="1.0" encoding="utf-8"?>
<!-- Generator: Adobe Illustrator 22.0.0, SVG Export Plug-In . SVG Version: 6.00 Build 0)  -->
<svg version="1.1" id="Layer_1" xmlns="http://www.w3.org/2000/svg" xmlns:xlink="http://www.w3.org/1999/xlink" x="0px" y="0px"
	 viewBox="0 0 216 216" style="enable-background:new 0 0 216 216;" xml:space="preserve">
<g>
	<path d="M194.5,11.5c5.5,0,10,4.5,10,10V195c0,5.5-4.5,10-10,10H21c-5.5,0-10-4.5-10-10V21.5c0-5.5,4.5-10,10-10H194.5 M194.5,4.5
		H21c-9.4,0-17,7.6-17,17V195c0,9.4,7.6,17,17,17h173.5c9.4,0,17-7.6,17-17V21.5C211.5,12.1,203.9,4.5,194.5,4.5L194.5,4.5z"/>
</g>
<g>
	<path d="M79.3,161.2c-1.1,0-2-0.4-2.8-1.1c-0.8-0.8-1.1-1.7-1.1-2.8V48.9c0-1.1,0.4-2,1.1-2.8c0.8-0.8,1.7-1.1,2.8-1.1h13.3
		c1.2,0,2.2,0.4,2.9,1.1c0.7,0.8,1.1,1.7,1.1,2.8v56l27.5-26c1.1-0.9,2-1.6,2.7-2c0.7-0.5,1.8-0.7,3.4-0.7h15.2c1.1,0,2,0.3,2.6,1
		c0.7,0.7,1,1.5,1,2.6c0,0.4-0.1,0.9-0.3,1.5c-0.2,0.5-0.7,1-1.3,1.5l-33.7,31.6l37.8,40.6c1.1,1.1,1.6,2,1.6,2.8
		c0,1.1-0.4,2-1.1,2.6c-0.7,0.7-1.6,1-2.5,1h-15.6c-1.6,0-2.8-0.2-3.5-0.7c-0.7-0.5-1.6-1.2-2.5-2l-31.3-32.9v31.8
		c0,1.1-0.4,2-1.1,2.8c-0.7,0.8-1.7,1.1-2.9,1.1H79.3z"/>
</g>
</svg>
