<?xml version="1.0" encoding="utf-8"?>
<!-- Generator: Adobe Illustrator 22.0.0, SVG Export Plug-In . SVG Version: 6.00 Build 0)  -->
<svg version="1.1" id="Layer_1" xmlns="http://www.w3.org/2000/svg" xmlns:xlink="http://www.w3.org/1999/xlink" x="0px" y="0px"
	 viewBox="0 0 216 216" style="enable-background:new 0 0 216 216;" xml:space="preserve">
<g>
	<path d="M194.5,11.5c5.5,0,10,4.5,10,10V195c0,5.5-4.5,10-10,10H21c-5.5,0-10-4.5-10-10V21.5c0-5.5,4.5-10,10-10H194.5 M194.5,4.5
		H21c-9.4,0-17,7.6-17,17V195c0,9.4,7.6,17,17,17h173.5c9.4,0,17-7.6,17-17V21.5C211.5,12.1,203.9,4.5,194.5,4.5L194.5,4.5z"/>
</g>
<g>
	<path d="M35.2,60c-2.3,0-4.2-0.4-5.8-1.2c-1.6-0.8-2.7-2-3.5-3.6c-0.8-1.6-1.1-3.5-1.1-5.9V36.4h-4.5c-0.4,0-0.7-0.1-1-0.4
		c-0.3-0.3-0.4-0.6-0.4-1v-3.2c0-0.4,0.1-0.7,0.4-1c0.3-0.3,0.6-0.4,1-0.4h4.5v-9.5c0-0.4,0.1-0.7,0.4-1c0.2-0.3,0.6-0.4,1-0.4h4.6
		c0.4,0,0.7,0.1,1,0.4c0.3,0.3,0.4,0.6,0.4,1v9.5h7.1c0.4,0,0.7,0.1,1,0.4c0.3,0.3,0.4,0.6,0.4,1v3.2c0,0.4-0.1,0.8-0.4,1
		c-0.3,0.3-0.6,0.4-1,0.4h-7.1v12.4c0,1.6,0.3,2.8,0.8,3.6c0.6,0.9,1.5,1.3,2.9,1.3h3.9c0.4,0,0.7,0.1,1,0.4c0.3,0.3,0.4,0.6,0.4,1
		v3.5c0,0.4-0.1,0.7-0.4,1c-0.3,0.3-0.6,0.4-1,0.4H35.2z"/>
	<path d="M47.6,60c-0.4,0-0.7-0.1-1-0.4c-0.3-0.3-0.4-0.6-0.4-1V20.9c0-0.4,0.1-0.7,0.4-1c0.3-0.3,0.6-0.4,1-0.4h5.1
		c0.4,0,0.8,0.1,1,0.4c0.2,0.3,0.4,0.6,0.4,1v13c1-1.2,2.3-2.2,3.8-3c1.5-0.8,3.3-1.1,5.5-1.1c2.3,0,4.3,0.5,6.1,1.6
		c1.7,1,3.1,2.5,4,4.4c0.9,1.9,1.4,4.2,1.4,6.8v16c0,0.4-0.1,0.7-0.4,1c-0.3,0.3-0.6,0.4-1,0.4h-5.1c-0.4,0-0.7-0.1-1-0.4
		c-0.3-0.3-0.4-0.6-0.4-1V42.9c0-2.2-0.5-3.9-1.6-5.2c-1.1-1.3-2.7-1.9-4.7-1.9c-2,0-3.6,0.6-4.8,1.9c-1.2,1.3-1.8,3-1.8,5.2v15.7
		c0,0.4-0.1,0.7-0.4,1c-0.2,0.3-0.6,0.4-1,0.4H47.6z"/>
	<path d="M94.8,60.5c-4.2,0-7.6-1.2-10-3.6c-2.5-2.4-3.8-5.9-4-10.4c0-0.4-0.1-0.9-0.1-1.5c0-0.6,0-1.1,0.1-1.4
		c0.2-2.9,0.8-5.4,2-7.4c1.2-2.1,2.8-3.7,4.8-4.8c2.1-1.1,4.5-1.7,7.2-1.7c3.1,0,5.7,0.6,7.8,1.9c2.1,1.3,3.7,3,4.7,5.3
		c1.1,2.3,1.6,4.9,1.6,7.8V46c0,0.4-0.1,0.7-0.4,1c-0.3,0.3-0.6,0.4-1,0.4H88.6c0,0.2,0,0.4,0,0.5c0,1.3,0.3,2.6,0.8,3.7
		c0.5,1.1,1.2,2,2.1,2.7c0.9,0.7,2,1,3.3,1c1.1,0,2-0.2,2.7-0.5c0.7-0.3,1.3-0.7,1.8-1.1c0.5-0.4,0.8-0.8,1-1
		c0.3-0.5,0.6-0.7,0.8-0.8c0.2-0.1,0.5-0.1,0.9-0.1h4.9c0.4,0,0.7,0.1,0.9,0.3c0.2,0.2,0.4,0.5,0.3,0.9c0,0.6-0.4,1.3-0.9,2.2
		c-0.6,0.9-1.4,1.7-2.5,2.6c-1.1,0.8-2.5,1.5-4.1,2.1C98.9,60.3,97,60.5,94.8,60.5z M88.6,42.6h12.6v-0.2c0-1.5-0.2-2.8-0.7-3.9
		c-0.5-1.1-1.2-2-2.2-2.6c-1-0.6-2.1-0.9-3.4-0.9c-1.3,0-2.5,0.3-3.4,0.9c-1,0.6-1.7,1.5-2.1,2.6c-0.5,1.1-0.7,2.4-0.7,3.9V42.6z"/>
	<path d="M23.2,128.4c-0.4,0-0.7-0.1-1-0.4c-0.3-0.3-0.4-0.6-0.4-1V89.3c0-0.4,0.1-0.7,0.4-1c0.3-0.3,0.6-0.4,1-0.4h4.6
		c0.4,0,0.7,0.1,1,0.4c0.2,0.3,0.4,0.6,0.4,1v19.5l9.6-9.1c0.4-0.3,0.7-0.5,0.9-0.7c0.2-0.2,0.6-0.3,1.2-0.3h5.3
		c0.4,0,0.7,0.1,0.9,0.3s0.3,0.5,0.3,0.9c0,0.2,0,0.3-0.1,0.5c-0.1,0.2-0.2,0.4-0.5,0.5l-11.7,11l13.2,14.1c0.4,0.4,0.6,0.7,0.6,1
		c0,0.4-0.1,0.7-0.4,0.9c-0.2,0.2-0.5,0.3-0.9,0.3h-5.4c-0.6,0-1-0.1-1.2-0.3c-0.2-0.2-0.5-0.4-0.9-0.7l-10.9-11.5V127
		c0,0.4-0.1,0.7-0.4,1c-0.2,0.3-0.6,0.4-1,0.4H23.2z"/>
	<path d="M64.5,128.9c-4.2,0-7.6-1.2-10-3.6c-2.5-2.4-3.8-5.9-4-10.4c0-0.4-0.1-0.9-0.1-1.5c0-0.6,0-1.1,0.1-1.4
		c0.2-2.9,0.8-5.4,2-7.4c1.2-2.1,2.8-3.7,4.8-4.8c2.1-1.1,4.5-1.7,7.2-1.7c3.1,0,5.7,0.6,7.8,1.9c2.1,1.3,3.7,3,4.7,5.3
		c1.1,2.3,1.6,4.9,1.6,7.8v1.2c0,0.4-0.1,0.7-0.4,1c-0.3,0.3-0.6,0.4-1,0.4H58.2c0,0.2,0,0.4,0,0.5c0,1.3,0.3,2.6,0.8,3.7
		c0.5,1.1,1.2,2,2.1,2.7c0.9,0.7,2,1,3.3,1c1.1,0,2-0.2,2.7-0.5c0.7-0.3,1.3-0.7,1.8-1.1c0.5-0.4,0.8-0.8,1-1
		c0.3-0.5,0.6-0.7,0.8-0.8c0.2-0.1,0.5-0.1,0.9-0.1h4.9c0.4,0,0.7,0.1,0.9,0.3c0.2,0.2,0.4,0.5,0.3,0.9c0,0.6-0.4,1.3-0.9,2.2
		c-0.6,0.9-1.4,1.7-2.5,2.6c-1.1,0.8-2.5,1.5-4.1,2.1C68.5,128.7,66.6,128.9,64.5,128.9z M58.2,111h12.6v-0.2c0-1.5-0.2-2.8-0.7-3.9
		c-0.5-1.1-1.2-2-2.2-2.6c-1-0.6-2.1-0.9-3.4-0.9c-1.3,0-2.5,0.3-3.4,0.9c-1,0.6-1.7,1.5-2.1,2.6c-0.5,1.1-0.7,2.4-0.7,3.9V111z"/>
	<path d="M97.4,128.9c-4.2,0-7.6-1.2-10-3.6c-2.5-2.4-3.8-5.9-4-10.4c0-0.4-0.1-0.9-0.1-1.5c0-0.6,0-1.1,0.1-1.4
		c0.2-2.9,0.8-5.4,2-7.4c1.2-2.1,2.8-3.7,4.8-4.8c2.1-1.1,4.5-1.7,7.2-1.7c3.1,0,5.7,0.6,7.8,1.9c2.1,1.3,3.7,3,4.7,5.3
		c1.1,2.3,1.6,4.9,1.6,7.8v1.2c0,0.4-0.1,0.7-0.4,1c-0.3,0.3-0.6,0.4-1,0.4H91.1c0,0.2,0,0.4,0,0.5c0,1.3,0.3,2.6,0.8,3.7
		c0.5,1.1,1.2,2,2.1,2.7c0.9,0.7,2,1,3.3,1c1.1,0,2-0.2,2.7-0.5c0.7-0.3,1.3-0.7,1.8-1.1c0.5-0.4,0.8-0.8,1-1
		c0.3-0.5,0.6-0.7,0.8-0.8c0.2-0.1,0.5-0.1,0.9-0.1h4.9c0.4,0,0.7,0.1,0.9,0.3c0.2,0.2,0.4,0.5,0.3,0.9c0,0.6-0.4,1.3-0.9,2.2
		c-0.6,0.9-1.4,1.7-2.5,2.6c-1.1,0.8-2.5,1.5-4.1,2.1C101.4,128.7,99.5,128.9,97.4,128.9z M91.1,111h12.6v-0.2
		c0-1.5-0.2-2.8-0.7-3.9c-0.5-1.1-1.2-2-2.2-2.6c-1-0.6-2.1-0.9-3.4-0.9c-1.3,0-2.5,0.3-3.4,0.9c-1,0.6-1.7,1.5-2.1,2.6
		c-0.5,1.1-0.7,2.4-0.7,3.9V111z"/>
	<path d="M118.9,139.2c-0.4,0-0.7-0.1-1-0.4s-0.4-0.6-0.4-1v-37.7c0-0.4,0.1-0.7,0.4-1c0.3-0.3,0.6-0.4,1-0.4h4.5
		c0.4,0,0.7,0.1,1,0.4c0.2,0.3,0.4,0.6,0.4,1v2.3c0.9-1.2,2.1-2.2,3.6-3c1.5-0.8,3.3-1.2,5.5-1.2c2,0,3.8,0.3,5.2,1
		c1.5,0.6,2.7,1.6,3.7,2.8c1,1.2,1.7,2.6,2.3,4.2c0.5,1.6,0.8,3.4,0.9,5.4c0,0.6,0.1,1.3,0.1,2c0,0.7,0,1.4-0.1,2.1
		c0,1.9-0.3,3.7-0.9,5.3s-1.3,3-2.3,4.2s-2.3,2.1-3.7,2.8c-1.5,0.7-3.2,1-5.2,1c-2.1,0-3.8-0.4-5.2-1.1c-1.4-0.7-2.6-1.7-3.5-2.9
		v12.9c0,0.4-0.1,0.7-0.4,1s-0.6,0.4-1,0.4H118.9z M131.8,122.8c1.6,0,2.9-0.4,3.8-1.1c0.9-0.7,1.6-1.6,2-2.8
		c0.4-1.1,0.7-2.4,0.7-3.8c0-1.1,0-2.3,0-3.4c-0.1-1.4-0.3-2.6-0.7-3.8c-0.4-1.1-1.1-2.1-2-2.8c-0.9-0.7-2.2-1.1-3.8-1.1
		c-1.6,0-2.8,0.4-3.8,1.1c-1,0.7-1.7,1.6-2.1,2.8c-0.4,1.1-0.7,2.3-0.8,3.4c0,0.7-0.1,1.4-0.1,2.2c0,0.8,0,1.5,0.1,2.2
		c0,1.1,0.3,2.2,0.8,3.3c0.5,1,1.2,1.9,2.2,2.6C129.1,122.5,130.3,122.8,131.8,122.8z"/>
	<path d="M153.9,128.4c-0.4,0-0.7-0.1-1-0.4c-0.3-0.3-0.4-0.6-0.4-1v-26.8c0-0.4,0.1-0.8,0.4-1c0.3-0.3,0.6-0.4,1-0.4h4.6
		c0.4,0,0.7,0.1,1,0.4c0.3,0.3,0.4,0.6,0.4,1v2.3c0.9-1.2,2-2.1,3.4-2.8c1.4-0.6,3-1,4.8-1h2.3c0.4,0,0.8,0.1,1,0.4
		c0.2,0.3,0.4,0.6,0.4,1v4.1c0,0.4-0.1,0.7-0.4,1c-0.2,0.3-0.6,0.4-1,0.4H166c-1.8,0-3.2,0.5-4.2,1.5c-1,1-1.5,2.4-1.5,4.2V127
		c0,0.4-0.1,0.7-0.4,1c-0.3,0.3-0.6,0.4-1,0.4H153.9z"/>
	<path d="M34.6,197.3c-2.7,0-5.1-0.5-7.2-1.5c-2.1-1-3.7-2.5-4.8-4.5c-1.2-2-1.8-4.3-1.9-7.1c0-0.6-0.1-1.3-0.1-2.3
		c0-0.9,0-1.7,0.1-2.3c0.1-2.8,0.8-5.1,1.9-7.1c1.2-2,2.8-3.4,4.8-4.5c2.1-1,4.5-1.5,7.2-1.5c2.4,0,4.5,0.3,6.2,1
		c1.7,0.7,3.1,1.5,4.2,2.6c1.1,1,1.9,2.1,2.5,3.2c0.6,1.1,0.8,2.1,0.9,3c0,0.4-0.1,0.8-0.4,1c-0.3,0.2-0.6,0.4-1,0.4h-5
		c-0.4,0-0.7-0.1-0.9-0.3c-0.2-0.2-0.4-0.5-0.6-0.9c-0.6-1.5-1.3-2.6-2.3-3.2c-0.9-0.6-2.1-0.9-3.6-0.9c-1.9,0-3.4,0.6-4.5,1.8
		c-1.1,1.2-1.7,3.1-1.8,5.7c-0.1,1.4-0.1,2.8,0,4c0.1,2.6,0.7,4.5,1.8,5.7c1.1,1.2,2.6,1.8,4.5,1.8c1.5,0,2.7-0.3,3.6-0.9
		s1.7-1.7,2.2-3.2c0.2-0.4,0.4-0.7,0.6-0.9c0.2-0.2,0.5-0.3,0.9-0.3h5c0.4,0,0.7,0.1,1,0.4c0.3,0.2,0.4,0.6,0.4,1
		c0,0.7-0.2,1.5-0.5,2.3c-0.3,0.9-0.8,1.7-1.5,2.6c-0.7,0.9-1.6,1.7-2.7,2.5c-1.1,0.7-2.3,1.3-3.8,1.8
		C38.3,197.1,36.6,197.3,34.6,197.3z"/>
	<path d="M67.4,197.3c-3,0-5.6-0.5-7.7-1.6c-2.1-1.1-3.6-2.6-4.7-4.5c-1.1-1.9-1.7-4.2-1.9-6.8c0-0.7-0.1-1.5-0.1-2.5
		c0-1,0-1.8,0.1-2.5c0.2-2.6,0.8-4.9,1.9-6.8c1.1-1.9,2.7-3.4,4.8-4.5c2.1-1.1,4.6-1.6,7.6-1.6s5.5,0.5,7.6,1.6
		c2.1,1.1,3.7,2.6,4.8,4.5c1.1,1.9,1.8,4.2,1.9,6.8c0,0.7,0.1,1.5,0.1,2.5c0,1,0,1.8-0.1,2.5c-0.2,2.6-0.8,4.8-1.9,6.8
		c-1.1,1.9-2.7,3.4-4.7,4.5C73,196.8,70.5,197.3,67.4,197.3z M67.4,191.7c2,0,3.6-0.6,4.7-1.9c1.1-1.3,1.7-3.1,1.8-5.6
		c0-0.6,0.1-1.3,0.1-2.2s0-1.7-0.1-2.2c-0.1-2.5-0.7-4.3-1.8-5.6c-1.1-1.3-2.7-1.9-4.7-1.9c-2,0-3.6,0.6-4.7,1.9
		c-1.1,1.3-1.7,3.1-1.8,5.6c0,0.6-0.1,1.3-0.1,2.2s0,1.7,0.1,2.2c0.1,2.5,0.7,4.3,1.8,5.6C63.8,191.1,65.4,191.7,67.4,191.7z"/>
	<path d="M88.7,196.8c-0.4,0-0.7-0.1-1-0.4c-0.3-0.3-0.4-0.6-0.4-1v-5.6c0-0.4,0.1-0.8,0.4-1c0.3-0.3,0.6-0.4,1-0.4h5.7
		c0.4,0,0.7,0.1,1,0.4c0.3,0.3,0.4,0.6,0.4,1v5.6c0,0.4-0.1,0.7-0.4,1c-0.3,0.3-0.6,0.4-1,0.4H88.7z"/>
</g>
</svg>
